<mxfile host="app.diagrams.net" modified="2023-06-06T07:53:45.897Z" agent="Mozilla/5.0 (Windows NT 10.0; Win64; x64) AppleWebKit/537.36 (KHTML, like Gecko) Chrome/114.0.0.0 Safari/537.36" etag="-w3WQJetWpmaEufxJXLz" version="21.3.2" type="device">
  <diagram name="Page-1" id="XNckGpqc0WVYpioGDv8S">
    <mxGraphModel dx="1235" dy="646" grid="1" gridSize="10" guides="1" tooltips="1" connect="1" arrows="1" fold="1" page="1" pageScale="1" pageWidth="827" pageHeight="1169" math="0" shadow="0">
      <root>
        <mxCell id="0" />
        <mxCell id="1" parent="0" />
        <mxCell id="Vr_59jr4dUAh8Cc-bapq-1" value="" style="rounded=0;whiteSpace=wrap;html=1;" vertex="1" parent="1">
          <mxGeometry x="63" y="145" width="120" height="150" as="geometry" />
        </mxCell>
        <mxCell id="Vr_59jr4dUAh8Cc-bapq-2" value="" style="rounded=0;whiteSpace=wrap;html=1;" vertex="1" parent="1">
          <mxGeometry x="225" y="155" width="170" height="120" as="geometry" />
        </mxCell>
        <mxCell id="Vr_59jr4dUAh8Cc-bapq-3" value="" style="rounded=0;whiteSpace=wrap;html=1;" vertex="1" parent="1">
          <mxGeometry x="435" y="140" width="330" height="150" as="geometry" />
        </mxCell>
        <mxCell id="Vr_59jr4dUAh8Cc-bapq-4" value="&lt;font style=&quot;font-size: 10px;&quot;&gt;SS&lt;/font&gt;" style="text;html=1;strokeColor=none;fillColor=none;align=center;verticalAlign=middle;whiteSpace=wrap;rounded=0;" vertex="1" parent="1">
          <mxGeometry x="369" y="178" width="20" height="30" as="geometry" />
        </mxCell>
        <mxCell id="Vr_59jr4dUAh8Cc-bapq-5" value="&lt;span style=&quot;font-size: 10px;&quot;&gt;SCK&lt;/span&gt;" style="text;html=1;strokeColor=none;fillColor=none;align=center;verticalAlign=middle;whiteSpace=wrap;rounded=0;" vertex="1" parent="1">
          <mxGeometry x="341" y="178" width="30" height="30" as="geometry" />
        </mxCell>
        <mxCell id="Vr_59jr4dUAh8Cc-bapq-6" value="&lt;span style=&quot;font-size: 10px;&quot;&gt;MOSI&lt;/span&gt;" style="text;html=1;strokeColor=none;fillColor=none;align=center;verticalAlign=middle;whiteSpace=wrap;rounded=0;" vertex="1" parent="1">
          <mxGeometry x="314" y="178" width="30" height="30" as="geometry" />
        </mxCell>
        <mxCell id="Vr_59jr4dUAh8Cc-bapq-7" value="&lt;span style=&quot;font-size: 10px;&quot;&gt;MISO&lt;/span&gt;" style="text;html=1;strokeColor=none;fillColor=none;align=center;verticalAlign=middle;whiteSpace=wrap;rounded=0;" vertex="1" parent="1">
          <mxGeometry x="284" y="178" width="30" height="30" as="geometry" />
        </mxCell>
        <mxCell id="Vr_59jr4dUAh8Cc-bapq-9" value="&lt;span style=&quot;font-size: 10px;&quot;&gt;GND&lt;/span&gt;" style="text;html=1;strokeColor=none;fillColor=none;align=center;verticalAlign=middle;whiteSpace=wrap;rounded=0;" vertex="1" parent="1">
          <mxGeometry x="261" y="178" width="20" height="30" as="geometry" />
        </mxCell>
        <mxCell id="Vr_59jr4dUAh8Cc-bapq-10" value="&lt;span style=&quot;font-size: 10px;&quot;&gt;VCC&lt;/span&gt;" style="text;html=1;strokeColor=none;fillColor=none;align=center;verticalAlign=middle;whiteSpace=wrap;rounded=0;" vertex="1" parent="1">
          <mxGeometry x="229" y="178" width="30" height="30" as="geometry" />
        </mxCell>
        <mxCell id="Vr_59jr4dUAh8Cc-bapq-14" value="&lt;font style=&quot;font-size: 10px;&quot;&gt;8&lt;/font&gt;" style="text;html=1;strokeColor=none;fillColor=none;align=center;verticalAlign=middle;whiteSpace=wrap;rounded=0;" vertex="1" parent="1">
          <mxGeometry x="369" y="156" width="20" height="30" as="geometry" />
        </mxCell>
        <mxCell id="Vr_59jr4dUAh8Cc-bapq-15" value="&lt;span style=&quot;font-size: 10px;&quot;&gt;7&lt;/span&gt;" style="text;html=1;strokeColor=none;fillColor=none;align=center;verticalAlign=middle;whiteSpace=wrap;rounded=0;" vertex="1" parent="1">
          <mxGeometry x="341" y="156" width="30" height="30" as="geometry" />
        </mxCell>
        <mxCell id="Vr_59jr4dUAh8Cc-bapq-16" value="&lt;span style=&quot;font-size: 10px;&quot;&gt;6&lt;/span&gt;" style="text;html=1;strokeColor=none;fillColor=none;align=center;verticalAlign=middle;whiteSpace=wrap;rounded=0;" vertex="1" parent="1">
          <mxGeometry x="314" y="156" width="30" height="30" as="geometry" />
        </mxCell>
        <mxCell id="Vr_59jr4dUAh8Cc-bapq-17" value="&lt;span style=&quot;font-size: 10px;&quot;&gt;5&lt;/span&gt;" style="text;html=1;strokeColor=none;fillColor=none;align=center;verticalAlign=middle;whiteSpace=wrap;rounded=0;" vertex="1" parent="1">
          <mxGeometry x="284" y="156" width="30" height="30" as="geometry" />
        </mxCell>
        <mxCell id="Vr_59jr4dUAh8Cc-bapq-18" value="&lt;span style=&quot;font-size: 10px;&quot;&gt;3&lt;/span&gt;" style="text;html=1;strokeColor=none;fillColor=none;align=center;verticalAlign=middle;whiteSpace=wrap;rounded=0;" vertex="1" parent="1">
          <mxGeometry x="261" y="156" width="20" height="30" as="geometry" />
        </mxCell>
        <mxCell id="Vr_59jr4dUAh8Cc-bapq-19" value="&lt;span style=&quot;font-size: 10px;&quot;&gt;1&lt;/span&gt;" style="text;html=1;strokeColor=none;fillColor=none;align=center;verticalAlign=middle;whiteSpace=wrap;rounded=0;" vertex="1" parent="1">
          <mxGeometry x="229" y="156" width="30" height="30" as="geometry" />
        </mxCell>
        <mxCell id="Vr_59jr4dUAh8Cc-bapq-20" value="&lt;font size=&quot;1&quot; style=&quot;&quot;&gt;&lt;b style=&quot;font-size: 16px;&quot;&gt;RFID-RC522&lt;/b&gt;&lt;/font&gt;" style="text;html=1;strokeColor=none;fillColor=none;align=center;verticalAlign=middle;whiteSpace=wrap;rounded=0;" vertex="1" parent="1">
          <mxGeometry x="260" y="225" width="100" height="30" as="geometry" />
        </mxCell>
        <mxCell id="Vr_59jr4dUAh8Cc-bapq-21" value="&lt;font size=&quot;1&quot; style=&quot;&quot;&gt;&lt;b style=&quot;font-size: 16px;&quot;&gt;ESP32&lt;/b&gt;&lt;/font&gt;" style="text;html=1;strokeColor=none;fillColor=none;align=center;verticalAlign=middle;whiteSpace=wrap;rounded=0;" vertex="1" parent="1">
          <mxGeometry x="550" y="205" width="100" height="30" as="geometry" />
        </mxCell>
        <mxCell id="Vr_59jr4dUAh8Cc-bapq-22" value="&lt;font size=&quot;1&quot; style=&quot;&quot;&gt;&lt;b style=&quot;font-size: 16px;&quot;&gt;EEPROM&lt;/b&gt;&lt;/font&gt;" style="text;html=1;strokeColor=none;fillColor=none;align=center;verticalAlign=middle;whiteSpace=wrap;rounded=0;" vertex="1" parent="1">
          <mxGeometry x="73" y="205" width="100" height="30" as="geometry" />
        </mxCell>
        <mxCell id="Vr_59jr4dUAh8Cc-bapq-23" value="&lt;span style=&quot;font-size: 10px;&quot;&gt;CS&lt;/span&gt;" style="text;html=1;strokeColor=none;fillColor=none;align=center;verticalAlign=middle;whiteSpace=wrap;rounded=0;" vertex="1" parent="1">
          <mxGeometry x="150" y="169" width="30" height="30" as="geometry" />
        </mxCell>
        <mxCell id="Vr_59jr4dUAh8Cc-bapq-24" value="&lt;span style=&quot;font-size: 10px;&quot;&gt;MISO&lt;/span&gt;" style="text;html=1;strokeColor=none;fillColor=none;align=center;verticalAlign=middle;whiteSpace=wrap;rounded=0;" vertex="1" parent="1">
          <mxGeometry x="120" y="169" width="30" height="30" as="geometry" />
        </mxCell>
        <mxCell id="Vr_59jr4dUAh8Cc-bapq-25" value="&lt;span style=&quot;font-size: 10px;&quot;&gt;WP&lt;/span&gt;" style="text;html=1;strokeColor=none;fillColor=none;align=center;verticalAlign=middle;whiteSpace=wrap;rounded=0;" vertex="1" parent="1">
          <mxGeometry x="97" y="169" width="20" height="30" as="geometry" />
        </mxCell>
        <mxCell id="Vr_59jr4dUAh8Cc-bapq-26" value="&lt;span style=&quot;font-size: 10px;&quot;&gt;VSS&lt;/span&gt;" style="text;html=1;strokeColor=none;fillColor=none;align=center;verticalAlign=middle;whiteSpace=wrap;rounded=0;" vertex="1" parent="1">
          <mxGeometry x="65" y="169" width="30" height="30" as="geometry" />
        </mxCell>
        <mxCell id="Vr_59jr4dUAh8Cc-bapq-27" value="&lt;span style=&quot;font-size: 10px;&quot;&gt;1&lt;/span&gt;" style="text;html=1;strokeColor=none;fillColor=none;align=center;verticalAlign=middle;whiteSpace=wrap;rounded=0;" vertex="1" parent="1">
          <mxGeometry x="150" y="147" width="30" height="30" as="geometry" />
        </mxCell>
        <mxCell id="Vr_59jr4dUAh8Cc-bapq-28" value="&lt;span style=&quot;font-size: 10px;&quot;&gt;2&lt;/span&gt;" style="text;html=1;strokeColor=none;fillColor=none;align=center;verticalAlign=middle;whiteSpace=wrap;rounded=0;" vertex="1" parent="1">
          <mxGeometry x="120" y="147" width="30" height="30" as="geometry" />
        </mxCell>
        <mxCell id="Vr_59jr4dUAh8Cc-bapq-29" value="&lt;span style=&quot;font-size: 10px;&quot;&gt;3&lt;/span&gt;" style="text;html=1;strokeColor=none;fillColor=none;align=center;verticalAlign=middle;whiteSpace=wrap;rounded=0;" vertex="1" parent="1">
          <mxGeometry x="97" y="147" width="20" height="30" as="geometry" />
        </mxCell>
        <mxCell id="Vr_59jr4dUAh8Cc-bapq-30" value="&lt;span style=&quot;font-size: 10px;&quot;&gt;4&lt;/span&gt;" style="text;html=1;strokeColor=none;fillColor=none;align=center;verticalAlign=middle;whiteSpace=wrap;rounded=0;" vertex="1" parent="1">
          <mxGeometry x="65" y="147" width="30" height="30" as="geometry" />
        </mxCell>
        <mxCell id="Vr_59jr4dUAh8Cc-bapq-31" value="&lt;span style=&quot;font-size: 10px;&quot;&gt;8&lt;/span&gt;" style="text;html=1;strokeColor=none;fillColor=none;align=center;verticalAlign=middle;whiteSpace=wrap;rounded=0;" vertex="1" parent="1">
          <mxGeometry x="150.5" y="265" width="30" height="30" as="geometry" />
        </mxCell>
        <mxCell id="Vr_59jr4dUAh8Cc-bapq-32" value="&lt;span style=&quot;font-size: 10px;&quot;&gt;7&lt;/span&gt;" style="text;html=1;strokeColor=none;fillColor=none;align=center;verticalAlign=middle;whiteSpace=wrap;rounded=0;" vertex="1" parent="1">
          <mxGeometry x="120.5" y="265" width="30" height="30" as="geometry" />
        </mxCell>
        <mxCell id="Vr_59jr4dUAh8Cc-bapq-33" value="&lt;span style=&quot;font-size: 10px;&quot;&gt;6&lt;/span&gt;" style="text;html=1;strokeColor=none;fillColor=none;align=center;verticalAlign=middle;whiteSpace=wrap;rounded=0;" vertex="1" parent="1">
          <mxGeometry x="97.5" y="265" width="20" height="30" as="geometry" />
        </mxCell>
        <mxCell id="Vr_59jr4dUAh8Cc-bapq-34" value="&lt;span style=&quot;font-size: 10px;&quot;&gt;5&lt;/span&gt;" style="text;html=1;strokeColor=none;fillColor=none;align=center;verticalAlign=middle;whiteSpace=wrap;rounded=0;" vertex="1" parent="1">
          <mxGeometry x="65.5" y="265" width="30" height="30" as="geometry" />
        </mxCell>
        <mxCell id="Vr_59jr4dUAh8Cc-bapq-35" value="&lt;span style=&quot;font-size: 10px;&quot;&gt;VCC&lt;/span&gt;" style="text;html=1;strokeColor=none;fillColor=none;align=center;verticalAlign=middle;whiteSpace=wrap;rounded=0;" vertex="1" parent="1">
          <mxGeometry x="150.5" y="243" width="30" height="30" as="geometry" />
        </mxCell>
        <mxCell id="Vr_59jr4dUAh8Cc-bapq-36" value="&lt;span style=&quot;font-size: 10px;&quot;&gt;HOLD&lt;/span&gt;" style="text;html=1;strokeColor=none;fillColor=none;align=center;verticalAlign=middle;whiteSpace=wrap;rounded=0;" vertex="1" parent="1">
          <mxGeometry x="120.5" y="243" width="30" height="30" as="geometry" />
        </mxCell>
        <mxCell id="Vr_59jr4dUAh8Cc-bapq-37" value="&lt;span style=&quot;font-size: 10px;&quot;&gt;SCK&lt;/span&gt;" style="text;html=1;strokeColor=none;fillColor=none;align=center;verticalAlign=middle;whiteSpace=wrap;rounded=0;" vertex="1" parent="1">
          <mxGeometry x="97.5" y="243" width="20" height="30" as="geometry" />
        </mxCell>
        <mxCell id="Vr_59jr4dUAh8Cc-bapq-38" value="&lt;span style=&quot;font-size: 10px;&quot;&gt;MOSI&lt;/span&gt;" style="text;html=1;strokeColor=none;fillColor=none;align=center;verticalAlign=middle;whiteSpace=wrap;rounded=0;" vertex="1" parent="1">
          <mxGeometry x="65.5" y="243" width="30" height="30" as="geometry" />
        </mxCell>
        <mxCell id="Vr_59jr4dUAh8Cc-bapq-39" value="" style="rounded=0;whiteSpace=wrap;html=1;" vertex="1" parent="1">
          <mxGeometry x="525" y="321" width="100" height="80" as="geometry" />
        </mxCell>
        <mxCell id="Vr_59jr4dUAh8Cc-bapq-41" value="&lt;b&gt;TMB12A05&lt;br&gt;&lt;/b&gt;" style="text;html=1;strokeColor=none;fillColor=none;align=center;verticalAlign=middle;whiteSpace=wrap;rounded=0;" vertex="1" parent="1">
          <mxGeometry x="525" y="346" width="100" height="30" as="geometry" />
        </mxCell>
        <mxCell id="Vr_59jr4dUAh8Cc-bapq-43" value="&lt;span style=&quot;font-size: 10px;&quot;&gt;GND&lt;/span&gt;" style="text;html=1;strokeColor=none;fillColor=none;align=center;verticalAlign=middle;whiteSpace=wrap;rounded=0;" vertex="1" parent="1">
          <mxGeometry x="560" y="371" width="30" height="30" as="geometry" />
        </mxCell>
        <mxCell id="Vr_59jr4dUAh8Cc-bapq-44" value="&lt;span style=&quot;font-size: 10px;&quot;&gt;VCC&lt;/span&gt;" style="text;html=1;strokeColor=none;fillColor=none;align=center;verticalAlign=middle;whiteSpace=wrap;rounded=0;" vertex="1" parent="1">
          <mxGeometry x="565" y="321" width="20" height="30" as="geometry" />
        </mxCell>
        <mxCell id="Vr_59jr4dUAh8Cc-bapq-45" value="&lt;span style=&quot;font-size: 10px;&quot;&gt;33&lt;/span&gt;" style="text;html=1;strokeColor=none;fillColor=none;align=center;verticalAlign=middle;whiteSpace=wrap;rounded=0;" vertex="1" parent="1">
          <mxGeometry x="560" y="260" width="30" height="30" as="geometry" />
        </mxCell>
        <mxCell id="Vr_59jr4dUAh8Cc-bapq-46" value="&lt;span style=&quot;font-size: 10px;&quot;&gt;3V3&lt;/span&gt;" style="text;html=1;strokeColor=none;fillColor=none;align=center;verticalAlign=middle;whiteSpace=wrap;rounded=0;" vertex="1" parent="1">
          <mxGeometry x="436" y="260" width="30" height="30" as="geometry" />
        </mxCell>
        <mxCell id="Vr_59jr4dUAh8Cc-bapq-47" value="&lt;span style=&quot;font-size: 10px;&quot;&gt;GND&lt;/span&gt;" style="text;html=1;strokeColor=none;fillColor=none;align=center;verticalAlign=middle;whiteSpace=wrap;rounded=0;" vertex="1" parent="1">
          <mxGeometry x="695" y="260" width="30" height="30" as="geometry" />
        </mxCell>
        <mxCell id="Vr_59jr4dUAh8Cc-bapq-48" value="" style="endArrow=none;html=1;rounded=0;entryX=0.5;entryY=1;entryDx=0;entryDy=0;" edge="1" parent="1" target="Vr_59jr4dUAh8Cc-bapq-45">
          <mxGeometry width="50" height="50" relative="1" as="geometry">
            <mxPoint x="575" y="320" as="sourcePoint" />
            <mxPoint x="445" y="250" as="targetPoint" />
          </mxGeometry>
        </mxCell>
        <mxCell id="Vr_59jr4dUAh8Cc-bapq-49" value="" style="endArrow=none;html=1;rounded=0;" edge="1" parent="1">
          <mxGeometry width="50" height="50" relative="1" as="geometry">
            <mxPoint x="695" y="310" as="sourcePoint" />
            <mxPoint x="725" y="310" as="targetPoint" />
          </mxGeometry>
        </mxCell>
        <mxCell id="Vr_59jr4dUAh8Cc-bapq-50" value="" style="endArrow=none;html=1;rounded=0;" edge="1" parent="1">
          <mxGeometry width="50" height="50" relative="1" as="geometry">
            <mxPoint x="700" y="314" as="sourcePoint" />
            <mxPoint x="720" y="314" as="targetPoint" />
          </mxGeometry>
        </mxCell>
        <mxCell id="Vr_59jr4dUAh8Cc-bapq-51" value="" style="endArrow=none;html=1;rounded=0;" edge="1" parent="1">
          <mxGeometry width="50" height="50" relative="1" as="geometry">
            <mxPoint x="708" y="322" as="sourcePoint" />
            <mxPoint x="713" y="322" as="targetPoint" />
          </mxGeometry>
        </mxCell>
        <mxCell id="Vr_59jr4dUAh8Cc-bapq-52" value="" style="endArrow=none;html=1;rounded=0;" edge="1" parent="1">
          <mxGeometry width="50" height="50" relative="1" as="geometry">
            <mxPoint x="705" y="318" as="sourcePoint" />
            <mxPoint x="717" y="318" as="targetPoint" />
          </mxGeometry>
        </mxCell>
        <mxCell id="Vr_59jr4dUAh8Cc-bapq-53" value="" style="endArrow=none;html=1;rounded=0;entryX=0.5;entryY=1;entryDx=0;entryDy=0;" edge="1" parent="1" target="Vr_59jr4dUAh8Cc-bapq-47">
          <mxGeometry width="50" height="50" relative="1" as="geometry">
            <mxPoint x="710" y="310" as="sourcePoint" />
            <mxPoint x="685" y="280" as="targetPoint" />
          </mxGeometry>
        </mxCell>
        <mxCell id="Vr_59jr4dUAh8Cc-bapq-59" value="" style="endArrow=none;html=1;rounded=0;entryX=0.5;entryY=1;entryDx=0;entryDy=0;" edge="1" parent="1">
          <mxGeometry width="50" height="50" relative="1" as="geometry">
            <mxPoint x="451" y="310" as="sourcePoint" />
            <mxPoint x="451" y="290" as="targetPoint" />
          </mxGeometry>
        </mxCell>
        <mxCell id="Vr_59jr4dUAh8Cc-bapq-60" value="" style="endArrow=none;html=1;rounded=0;" edge="1" parent="1">
          <mxGeometry width="50" height="50" relative="1" as="geometry">
            <mxPoint x="445" y="310" as="sourcePoint" />
            <mxPoint x="457" y="310" as="targetPoint" />
          </mxGeometry>
        </mxCell>
        <mxCell id="Vr_59jr4dUAh8Cc-bapq-61" value="" style="endArrow=none;html=1;rounded=0;" edge="1" parent="1">
          <mxGeometry width="50" height="50" relative="1" as="geometry">
            <mxPoint x="561" y="421" as="sourcePoint" />
            <mxPoint x="591" y="421" as="targetPoint" />
          </mxGeometry>
        </mxCell>
        <mxCell id="Vr_59jr4dUAh8Cc-bapq-62" value="" style="endArrow=none;html=1;rounded=0;" edge="1" parent="1">
          <mxGeometry width="50" height="50" relative="1" as="geometry">
            <mxPoint x="566" y="425" as="sourcePoint" />
            <mxPoint x="586" y="425" as="targetPoint" />
          </mxGeometry>
        </mxCell>
        <mxCell id="Vr_59jr4dUAh8Cc-bapq-63" value="" style="endArrow=none;html=1;rounded=0;" edge="1" parent="1">
          <mxGeometry width="50" height="50" relative="1" as="geometry">
            <mxPoint x="574" y="433" as="sourcePoint" />
            <mxPoint x="579" y="433" as="targetPoint" />
          </mxGeometry>
        </mxCell>
        <mxCell id="Vr_59jr4dUAh8Cc-bapq-64" value="" style="endArrow=none;html=1;rounded=0;" edge="1" parent="1">
          <mxGeometry width="50" height="50" relative="1" as="geometry">
            <mxPoint x="571" y="429" as="sourcePoint" />
            <mxPoint x="583" y="429" as="targetPoint" />
          </mxGeometry>
        </mxCell>
        <mxCell id="Vr_59jr4dUAh8Cc-bapq-65" value="" style="endArrow=none;html=1;rounded=0;entryX=0.5;entryY=1;entryDx=0;entryDy=0;" edge="1" parent="1">
          <mxGeometry width="50" height="50" relative="1" as="geometry">
            <mxPoint x="576" y="421" as="sourcePoint" />
            <mxPoint x="576" y="401" as="targetPoint" />
          </mxGeometry>
        </mxCell>
        <mxCell id="Vr_59jr4dUAh8Cc-bapq-66" value="" style="endArrow=none;html=1;rounded=0;entryX=0.5;entryY=1;entryDx=0;entryDy=0;" edge="1" parent="1">
          <mxGeometry width="50" height="50" relative="1" as="geometry">
            <mxPoint x="165" y="315" as="sourcePoint" />
            <mxPoint x="165" y="295" as="targetPoint" />
          </mxGeometry>
        </mxCell>
        <mxCell id="Vr_59jr4dUAh8Cc-bapq-67" value="" style="endArrow=none;html=1;rounded=0;" edge="1" parent="1">
          <mxGeometry width="50" height="50" relative="1" as="geometry">
            <mxPoint x="159" y="315" as="sourcePoint" />
            <mxPoint x="171" y="315" as="targetPoint" />
          </mxGeometry>
        </mxCell>
        <mxCell id="Vr_59jr4dUAh8Cc-bapq-68" value="" style="endArrow=none;html=1;rounded=0;entryX=0.6;entryY=1.003;entryDx=0;entryDy=0;entryPerimeter=0;" edge="1" parent="1" target="Vr_59jr4dUAh8Cc-bapq-1">
          <mxGeometry width="50" height="50" relative="1" as="geometry">
            <mxPoint x="135" y="308" as="sourcePoint" />
            <mxPoint x="135" y="298" as="targetPoint" />
          </mxGeometry>
        </mxCell>
        <mxCell id="Vr_59jr4dUAh8Cc-bapq-70" value="" style="endArrow=none;html=1;rounded=0;" edge="1" parent="1">
          <mxGeometry width="50" height="50" relative="1" as="geometry">
            <mxPoint x="135" y="307" as="sourcePoint" />
            <mxPoint x="165" y="307" as="targetPoint" />
          </mxGeometry>
        </mxCell>
        <mxCell id="Vr_59jr4dUAh8Cc-bapq-71" value="&lt;span style=&quot;font-size: 10px;&quot;&gt;3V3&lt;/span&gt;" style="text;html=1;strokeColor=none;fillColor=none;align=center;verticalAlign=middle;whiteSpace=wrap;rounded=0;" vertex="1" parent="1">
          <mxGeometry x="436" y="305" width="30" height="30" as="geometry" />
        </mxCell>
        <mxCell id="Vr_59jr4dUAh8Cc-bapq-72" value="&lt;span style=&quot;font-size: 10px;&quot;&gt;3V3&lt;/span&gt;" style="text;html=1;strokeColor=none;fillColor=none;align=center;verticalAlign=middle;whiteSpace=wrap;rounded=0;" vertex="1" parent="1">
          <mxGeometry x="151" y="309" width="30" height="30" as="geometry" />
        </mxCell>
        <mxCell id="Vr_59jr4dUAh8Cc-bapq-78" value="" style="endArrow=none;html=1;rounded=0;" edge="1" parent="1">
          <mxGeometry width="50" height="50" relative="1" as="geometry">
            <mxPoint x="65" y="125" as="sourcePoint" />
            <mxPoint x="95" y="125" as="targetPoint" />
          </mxGeometry>
        </mxCell>
        <mxCell id="Vr_59jr4dUAh8Cc-bapq-79" value="" style="endArrow=none;html=1;rounded=0;" edge="1" parent="1">
          <mxGeometry width="50" height="50" relative="1" as="geometry">
            <mxPoint x="70" y="122" as="sourcePoint" />
            <mxPoint x="90" y="122" as="targetPoint" />
          </mxGeometry>
        </mxCell>
        <mxCell id="Vr_59jr4dUAh8Cc-bapq-80" value="" style="endArrow=none;html=1;rounded=0;" edge="1" parent="1">
          <mxGeometry width="50" height="50" relative="1" as="geometry">
            <mxPoint x="78" y="116" as="sourcePoint" />
            <mxPoint x="83" y="116" as="targetPoint" />
          </mxGeometry>
        </mxCell>
        <mxCell id="Vr_59jr4dUAh8Cc-bapq-81" value="" style="endArrow=none;html=1;rounded=0;" edge="1" parent="1">
          <mxGeometry width="50" height="50" relative="1" as="geometry">
            <mxPoint x="74" y="119" as="sourcePoint" />
            <mxPoint x="86" y="119" as="targetPoint" />
          </mxGeometry>
        </mxCell>
        <mxCell id="Vr_59jr4dUAh8Cc-bapq-82" value="" style="endArrow=none;html=1;rounded=0;entryX=0.5;entryY=1;entryDx=0;entryDy=0;" edge="1" parent="1">
          <mxGeometry width="50" height="50" relative="1" as="geometry">
            <mxPoint x="80" y="145" as="sourcePoint" />
            <mxPoint x="80" y="125" as="targetPoint" />
          </mxGeometry>
        </mxCell>
        <mxCell id="Vr_59jr4dUAh8Cc-bapq-83" value="" style="endArrow=none;html=1;rounded=0;" edge="1" parent="1">
          <mxGeometry width="50" height="50" relative="1" as="geometry">
            <mxPoint x="105" y="145" as="sourcePoint" />
            <mxPoint x="105" y="70" as="targetPoint" />
          </mxGeometry>
        </mxCell>
        <mxCell id="Vr_59jr4dUAh8Cc-bapq-86" value="" style="endArrow=none;html=1;rounded=0;" edge="1" parent="1">
          <mxGeometry width="50" height="50" relative="1" as="geometry">
            <mxPoint x="256" y="135" as="sourcePoint" />
            <mxPoint x="286" y="135" as="targetPoint" />
          </mxGeometry>
        </mxCell>
        <mxCell id="Vr_59jr4dUAh8Cc-bapq-87" value="" style="endArrow=none;html=1;rounded=0;" edge="1" parent="1">
          <mxGeometry width="50" height="50" relative="1" as="geometry">
            <mxPoint x="261" y="132" as="sourcePoint" />
            <mxPoint x="281" y="132" as="targetPoint" />
          </mxGeometry>
        </mxCell>
        <mxCell id="Vr_59jr4dUAh8Cc-bapq-88" value="" style="endArrow=none;html=1;rounded=0;" edge="1" parent="1">
          <mxGeometry width="50" height="50" relative="1" as="geometry">
            <mxPoint x="269" y="126" as="sourcePoint" />
            <mxPoint x="274" y="126" as="targetPoint" />
          </mxGeometry>
        </mxCell>
        <mxCell id="Vr_59jr4dUAh8Cc-bapq-89" value="" style="endArrow=none;html=1;rounded=0;" edge="1" parent="1">
          <mxGeometry width="50" height="50" relative="1" as="geometry">
            <mxPoint x="265" y="129" as="sourcePoint" />
            <mxPoint x="277" y="129" as="targetPoint" />
          </mxGeometry>
        </mxCell>
        <mxCell id="Vr_59jr4dUAh8Cc-bapq-90" value="" style="endArrow=none;html=1;rounded=0;entryX=0.5;entryY=1;entryDx=0;entryDy=0;" edge="1" parent="1">
          <mxGeometry width="50" height="50" relative="1" as="geometry">
            <mxPoint x="271" y="155" as="sourcePoint" />
            <mxPoint x="271" y="135" as="targetPoint" />
          </mxGeometry>
        </mxCell>
        <mxCell id="Vr_59jr4dUAh8Cc-bapq-91" value="" style="endArrow=none;html=1;rounded=0;entryX=0.5;entryY=0.8;entryDx=0;entryDy=0;entryPerimeter=0;" edge="1" parent="1" target="Vr_59jr4dUAh8Cc-bapq-93">
          <mxGeometry width="50" height="50" relative="1" as="geometry">
            <mxPoint x="244" y="155" as="sourcePoint" />
            <mxPoint x="244" y="110" as="targetPoint" />
          </mxGeometry>
        </mxCell>
        <mxCell id="Vr_59jr4dUAh8Cc-bapq-92" value="" style="endArrow=none;html=1;rounded=0;" edge="1" parent="1">
          <mxGeometry width="50" height="50" relative="1" as="geometry">
            <mxPoint x="238" y="50" as="sourcePoint" />
            <mxPoint x="250" y="50" as="targetPoint" />
          </mxGeometry>
        </mxCell>
        <mxCell id="Vr_59jr4dUAh8Cc-bapq-93" value="&lt;span style=&quot;font-size: 10px;&quot;&gt;3V3&lt;/span&gt;" style="text;html=1;strokeColor=none;fillColor=none;align=center;verticalAlign=middle;whiteSpace=wrap;rounded=0;" vertex="1" parent="1">
          <mxGeometry x="229" y="26" width="30" height="30" as="geometry" />
        </mxCell>
        <mxCell id="Vr_59jr4dUAh8Cc-bapq-94" value="&lt;font style=&quot;font-size: 10px;&quot;&gt;2&lt;/font&gt;" style="text;html=1;strokeColor=none;fillColor=none;align=center;verticalAlign=middle;whiteSpace=wrap;rounded=0;" vertex="1" parent="1">
          <mxGeometry x="723" y="140" width="20" height="30" as="geometry" />
        </mxCell>
        <mxCell id="Vr_59jr4dUAh8Cc-bapq-95" value="&lt;span style=&quot;font-size: 10px;&quot;&gt;4&lt;/span&gt;" style="text;html=1;strokeColor=none;fillColor=none;align=center;verticalAlign=middle;whiteSpace=wrap;rounded=0;" vertex="1" parent="1">
          <mxGeometry x="705" y="140" width="17" height="30" as="geometry" />
        </mxCell>
        <mxCell id="Vr_59jr4dUAh8Cc-bapq-96" value="&lt;font style=&quot;font-size: 10px;&quot;&gt;16&lt;/font&gt;" style="text;html=1;strokeColor=none;fillColor=none;align=center;verticalAlign=middle;whiteSpace=wrap;rounded=0;" vertex="1" parent="1">
          <mxGeometry x="666" y="140" width="20" height="30" as="geometry" />
        </mxCell>
        <mxCell id="Vr_59jr4dUAh8Cc-bapq-97" value="&lt;span style=&quot;font-size: 10px;&quot;&gt;5&lt;/span&gt;" style="text;html=1;strokeColor=none;fillColor=none;align=center;verticalAlign=middle;whiteSpace=wrap;rounded=0;" vertex="1" parent="1">
          <mxGeometry x="645" y="140" width="20" height="30" as="geometry" />
        </mxCell>
        <mxCell id="Vr_59jr4dUAh8Cc-bapq-98" value="&lt;font style=&quot;font-size: 10px;&quot;&gt;18&lt;/font&gt;" style="text;html=1;strokeColor=none;fillColor=none;align=center;verticalAlign=middle;whiteSpace=wrap;rounded=0;" vertex="1" parent="1">
          <mxGeometry x="625" y="140" width="20" height="30" as="geometry" />
        </mxCell>
        <mxCell id="Vr_59jr4dUAh8Cc-bapq-99" value="&lt;span style=&quot;font-size: 10px;&quot;&gt;19&lt;/span&gt;" style="text;html=1;strokeColor=none;fillColor=none;align=center;verticalAlign=middle;whiteSpace=wrap;rounded=0;" vertex="1" parent="1">
          <mxGeometry x="604" y="140" width="20" height="30" as="geometry" />
        </mxCell>
        <mxCell id="Vr_59jr4dUAh8Cc-bapq-100" value="&lt;span style=&quot;font-size: 10px;&quot;&gt;GND&lt;/span&gt;" style="text;html=1;strokeColor=none;fillColor=none;align=center;verticalAlign=middle;whiteSpace=wrap;rounded=0;" vertex="1" parent="1">
          <mxGeometry x="574" y="140" width="30" height="30" as="geometry" />
        </mxCell>
        <mxCell id="Vr_59jr4dUAh8Cc-bapq-102" value="&lt;span style=&quot;font-size: 10px;&quot;&gt;23&lt;/span&gt;" style="text;html=1;strokeColor=none;fillColor=none;align=center;verticalAlign=middle;whiteSpace=wrap;rounded=0;" vertex="1" parent="1">
          <mxGeometry x="466" y="140" width="20" height="30" as="geometry" />
        </mxCell>
        <mxCell id="Vr_59jr4dUAh8Cc-bapq-103" value="&lt;span style=&quot;font-size: 10px;&quot;&gt;GND&lt;/span&gt;" style="text;html=1;strokeColor=none;fillColor=none;align=center;verticalAlign=middle;whiteSpace=wrap;rounded=0;" vertex="1" parent="1">
          <mxGeometry x="436" y="140" width="30" height="30" as="geometry" />
        </mxCell>
        <mxCell id="Vr_59jr4dUAh8Cc-bapq-112" value="" style="endArrow=none;html=1;rounded=0;" edge="1" parent="1">
          <mxGeometry width="50" height="50" relative="1" as="geometry">
            <mxPoint x="437" y="40" as="sourcePoint" />
            <mxPoint x="467" y="40" as="targetPoint" />
          </mxGeometry>
        </mxCell>
        <mxCell id="Vr_59jr4dUAh8Cc-bapq-113" value="" style="endArrow=none;html=1;rounded=0;" edge="1" parent="1">
          <mxGeometry width="50" height="50" relative="1" as="geometry">
            <mxPoint x="442" y="37" as="sourcePoint" />
            <mxPoint x="462" y="37" as="targetPoint" />
          </mxGeometry>
        </mxCell>
        <mxCell id="Vr_59jr4dUAh8Cc-bapq-114" value="" style="endArrow=none;html=1;rounded=0;" edge="1" parent="1">
          <mxGeometry width="50" height="50" relative="1" as="geometry">
            <mxPoint x="450" y="31" as="sourcePoint" />
            <mxPoint x="455" y="31" as="targetPoint" />
          </mxGeometry>
        </mxCell>
        <mxCell id="Vr_59jr4dUAh8Cc-bapq-115" value="" style="endArrow=none;html=1;rounded=0;" edge="1" parent="1">
          <mxGeometry width="50" height="50" relative="1" as="geometry">
            <mxPoint x="446" y="34" as="sourcePoint" />
            <mxPoint x="458" y="34" as="targetPoint" />
          </mxGeometry>
        </mxCell>
        <mxCell id="Vr_59jr4dUAh8Cc-bapq-116" value="" style="endArrow=none;html=1;rounded=0;" edge="1" parent="1">
          <mxGeometry width="50" height="50" relative="1" as="geometry">
            <mxPoint x="452" y="140" as="sourcePoint" />
            <mxPoint x="452" y="40" as="targetPoint" />
          </mxGeometry>
        </mxCell>
        <mxCell id="Vr_59jr4dUAh8Cc-bapq-119" value="" style="endArrow=none;html=1;rounded=0;" edge="1" parent="1">
          <mxGeometry width="50" height="50" relative="1" as="geometry">
            <mxPoint x="589" y="120" as="sourcePoint" />
            <mxPoint x="589" y="140" as="targetPoint" />
          </mxGeometry>
        </mxCell>
        <mxCell id="Vr_59jr4dUAh8Cc-bapq-120" value="" style="endArrow=none;html=1;rounded=0;" edge="1" parent="1">
          <mxGeometry width="50" height="50" relative="1" as="geometry">
            <mxPoint x="452" y="120" as="sourcePoint" />
            <mxPoint x="595" y="120" as="targetPoint" />
          </mxGeometry>
        </mxCell>
        <mxCell id="Vr_59jr4dUAh8Cc-bapq-121" value="" style="endArrow=none;html=1;rounded=0;entryX=0.448;entryY=-0.003;entryDx=0;entryDy=0;entryPerimeter=0;" edge="1" parent="1" target="Vr_59jr4dUAh8Cc-bapq-102">
          <mxGeometry width="50" height="50" relative="1" as="geometry">
            <mxPoint x="475" y="130" as="sourcePoint" />
            <mxPoint x="485" y="140" as="targetPoint" />
          </mxGeometry>
        </mxCell>
        <mxCell id="Vr_59jr4dUAh8Cc-bapq-123" value="" style="endArrow=none;html=1;rounded=0;entryX=0.448;entryY=-0.003;entryDx=0;entryDy=0;entryPerimeter=0;" edge="1" parent="1">
          <mxGeometry width="50" height="50" relative="1" as="geometry">
            <mxPoint x="329" y="130" as="sourcePoint" />
            <mxPoint x="329" y="155" as="targetPoint" />
          </mxGeometry>
        </mxCell>
        <mxCell id="Vr_59jr4dUAh8Cc-bapq-124" value="" style="endArrow=none;html=1;rounded=0;" edge="1" parent="1">
          <mxGeometry width="50" height="50" relative="1" as="geometry">
            <mxPoint x="325" y="130" as="sourcePoint" />
            <mxPoint x="475" y="130" as="targetPoint" />
          </mxGeometry>
        </mxCell>
        <mxCell id="Vr_59jr4dUAh8Cc-bapq-125" value="" style="endArrow=none;html=1;rounded=0;" edge="1" parent="1">
          <mxGeometry width="50" height="50" relative="1" as="geometry">
            <mxPoint x="425" y="370" as="sourcePoint" />
            <mxPoint x="425" y="130" as="targetPoint" />
          </mxGeometry>
        </mxCell>
        <mxCell id="Vr_59jr4dUAh8Cc-bapq-126" value="" style="endArrow=none;html=1;rounded=0;entryX=0.5;entryY=1;entryDx=0;entryDy=0;" edge="1" parent="1" target="Vr_59jr4dUAh8Cc-bapq-34">
          <mxGeometry width="50" height="50" relative="1" as="geometry">
            <mxPoint x="81" y="370" as="sourcePoint" />
            <mxPoint x="375" y="280" as="targetPoint" />
          </mxGeometry>
        </mxCell>
        <mxCell id="Vr_59jr4dUAh8Cc-bapq-127" value="" style="endArrow=none;html=1;rounded=0;" edge="1" parent="1">
          <mxGeometry width="50" height="50" relative="1" as="geometry">
            <mxPoint x="81" y="370" as="sourcePoint" />
            <mxPoint x="425" y="370" as="targetPoint" />
          </mxGeometry>
        </mxCell>
        <mxCell id="Vr_59jr4dUAh8Cc-bapq-128" value="" style="endArrow=none;html=1;rounded=0;" edge="1" parent="1">
          <mxGeometry width="50" height="50" relative="1" as="geometry">
            <mxPoint x="615" y="90" as="sourcePoint" />
            <mxPoint x="615" y="140" as="targetPoint" />
          </mxGeometry>
        </mxCell>
        <mxCell id="Vr_59jr4dUAh8Cc-bapq-129" value="" style="endArrow=none;html=1;rounded=0;" edge="1" parent="1">
          <mxGeometry width="50" height="50" relative="1" as="geometry">
            <mxPoint x="300" y="90" as="sourcePoint" />
            <mxPoint x="299.71" y="155" as="targetPoint" />
          </mxGeometry>
        </mxCell>
        <mxCell id="Vr_59jr4dUAh8Cc-bapq-130" value="" style="endArrow=none;html=1;rounded=0;" edge="1" parent="1">
          <mxGeometry width="50" height="50" relative="1" as="geometry">
            <mxPoint x="135" y="90" as="sourcePoint" />
            <mxPoint x="615" y="90" as="targetPoint" />
          </mxGeometry>
        </mxCell>
        <mxCell id="Vr_59jr4dUAh8Cc-bapq-131" value="" style="endArrow=none;html=1;rounded=0;exitX=0.599;exitY=-0.002;exitDx=0;exitDy=0;exitPerimeter=0;" edge="1" parent="1" source="Vr_59jr4dUAh8Cc-bapq-1">
          <mxGeometry width="50" height="50" relative="1" as="geometry">
            <mxPoint x="135" y="140" as="sourcePoint" />
            <mxPoint x="135" y="90" as="targetPoint" />
          </mxGeometry>
        </mxCell>
        <mxCell id="Vr_59jr4dUAh8Cc-bapq-132" value="" style="endArrow=none;html=1;rounded=0;" edge="1" parent="1">
          <mxGeometry width="50" height="50" relative="1" as="geometry">
            <mxPoint x="105" y="70" as="sourcePoint" />
            <mxPoint x="245" y="70" as="targetPoint" />
          </mxGeometry>
        </mxCell>
        <mxCell id="Vr_59jr4dUAh8Cc-bapq-133" value="" style="endArrow=none;html=1;rounded=0;" edge="1" parent="1">
          <mxGeometry width="50" height="50" relative="1" as="geometry">
            <mxPoint x="635" y="70" as="sourcePoint" />
            <mxPoint x="634.83" y="140" as="targetPoint" />
          </mxGeometry>
        </mxCell>
        <mxCell id="Vr_59jr4dUAh8Cc-bapq-134" value="" style="endArrow=none;html=1;rounded=0;" edge="1" parent="1">
          <mxGeometry width="50" height="50" relative="1" as="geometry">
            <mxPoint x="355" y="70" as="sourcePoint" />
            <mxPoint x="355.76000000000005" y="155" as="targetPoint" />
          </mxGeometry>
        </mxCell>
        <mxCell id="Vr_59jr4dUAh8Cc-bapq-135" value="" style="endArrow=none;html=1;rounded=0;" edge="1" parent="1">
          <mxGeometry width="50" height="50" relative="1" as="geometry">
            <mxPoint x="355" y="70" as="sourcePoint" />
            <mxPoint x="635" y="70" as="targetPoint" />
          </mxGeometry>
        </mxCell>
        <mxCell id="Vr_59jr4dUAh8Cc-bapq-136" value="" style="endArrow=none;html=1;rounded=0;" edge="1" parent="1">
          <mxGeometry width="50" height="50" relative="1" as="geometry">
            <mxPoint x="109" y="345" as="sourcePoint" />
            <mxPoint x="109" y="295" as="targetPoint" />
          </mxGeometry>
        </mxCell>
        <mxCell id="Vr_59jr4dUAh8Cc-bapq-137" value="" style="endArrow=none;html=1;rounded=0;" edge="1" parent="1">
          <mxGeometry width="50" height="50" relative="1" as="geometry">
            <mxPoint x="109" y="345" as="sourcePoint" />
            <mxPoint x="405" y="345" as="targetPoint" />
          </mxGeometry>
        </mxCell>
        <mxCell id="Vr_59jr4dUAh8Cc-bapq-138" value="" style="endArrow=none;html=1;rounded=0;" edge="1" parent="1">
          <mxGeometry width="50" height="50" relative="1" as="geometry">
            <mxPoint x="405" y="70" as="sourcePoint" />
            <mxPoint x="405" y="350" as="targetPoint" />
          </mxGeometry>
        </mxCell>
        <mxCell id="Vr_59jr4dUAh8Cc-bapq-139" value="" style="endArrow=none;html=1;rounded=0;" edge="1" parent="1">
          <mxGeometry width="50" height="50" relative="1" as="geometry">
            <mxPoint x="656" y="110" as="sourcePoint" />
            <mxPoint x="656" y="140" as="targetPoint" />
          </mxGeometry>
        </mxCell>
        <mxCell id="Vr_59jr4dUAh8Cc-bapq-140" value="" style="endArrow=none;html=1;rounded=0;" edge="1" parent="1">
          <mxGeometry width="50" height="50" relative="1" as="geometry">
            <mxPoint x="380" y="110" as="sourcePoint" />
            <mxPoint x="380" y="155" as="targetPoint" />
          </mxGeometry>
        </mxCell>
        <mxCell id="Vr_59jr4dUAh8Cc-bapq-142" value="" style="endArrow=none;html=1;rounded=0;" edge="1" parent="1">
          <mxGeometry width="50" height="50" relative="1" as="geometry">
            <mxPoint x="376" y="110" as="sourcePoint" />
            <mxPoint x="656" y="110" as="targetPoint" />
          </mxGeometry>
        </mxCell>
        <mxCell id="Vr_59jr4dUAh8Cc-bapq-143" value="" style="endArrow=none;html=1;rounded=0;exitX=0.599;exitY=-0.002;exitDx=0;exitDy=0;exitPerimeter=0;" edge="1" parent="1">
          <mxGeometry width="50" height="50" relative="1" as="geometry">
            <mxPoint x="166" y="145" as="sourcePoint" />
            <mxPoint x="165" y="10" as="targetPoint" />
          </mxGeometry>
        </mxCell>
        <mxCell id="Vr_59jr4dUAh8Cc-bapq-144" value="" style="endArrow=none;html=1;rounded=0;exitX=0.599;exitY=-0.002;exitDx=0;exitDy=0;exitPerimeter=0;" edge="1" parent="1">
          <mxGeometry width="50" height="50" relative="1" as="geometry">
            <mxPoint x="676" y="140" as="sourcePoint" />
            <mxPoint x="675" y="10" as="targetPoint" />
          </mxGeometry>
        </mxCell>
        <mxCell id="Vr_59jr4dUAh8Cc-bapq-145" value="" style="endArrow=none;html=1;rounded=0;" edge="1" parent="1">
          <mxGeometry width="50" height="50" relative="1" as="geometry">
            <mxPoint x="165" y="10" as="sourcePoint" />
            <mxPoint x="675" y="10" as="targetPoint" />
          </mxGeometry>
        </mxCell>
        <mxCell id="Vr_59jr4dUAh8Cc-bapq-148" value="&lt;font style=&quot;font-size: 9px;&quot;&gt;LED&lt;/font&gt;" style="text;html=1;align=center;verticalAlign=middle;whiteSpace=wrap;rounded=0;fillColor=default;fillStyle=solid;strokeColor=default;" vertex="1" parent="1">
          <mxGeometry x="725" y="90" width="20" height="30" as="geometry" />
        </mxCell>
        <mxCell id="Vr_59jr4dUAh8Cc-bapq-149" value="&lt;font style=&quot;font-size: 9px;&quot;&gt;LED&lt;/font&gt;" style="text;html=1;align=center;verticalAlign=middle;whiteSpace=wrap;rounded=0;fillColor=default;fillStyle=solid;strokeColor=default;" vertex="1" parent="1">
          <mxGeometry x="700" y="90" width="20" height="30" as="geometry" />
        </mxCell>
        <mxCell id="Vr_59jr4dUAh8Cc-bapq-151" value="" style="endArrow=none;html=1;rounded=0;entryX=0.5;entryY=1;entryDx=0;entryDy=0;exitX=0.301;exitY=0.001;exitDx=0;exitDy=0;exitPerimeter=0;" edge="1" parent="1">
          <mxGeometry width="50" height="50" relative="1" as="geometry">
            <mxPoint x="710.117" y="140.03000000000003" as="sourcePoint" />
            <mxPoint x="710" y="120" as="targetPoint" />
          </mxGeometry>
        </mxCell>
        <mxCell id="Vr_59jr4dUAh8Cc-bapq-152" value="" style="endArrow=none;html=1;rounded=0;entryX=0.5;entryY=1;entryDx=0;entryDy=0;exitX=0.301;exitY=0.001;exitDx=0;exitDy=0;exitPerimeter=0;" edge="1" parent="1">
          <mxGeometry width="50" height="50" relative="1" as="geometry">
            <mxPoint x="735.0469999999999" y="140.03000000000003" as="sourcePoint" />
            <mxPoint x="734.93" y="120" as="targetPoint" />
          </mxGeometry>
        </mxCell>
      </root>
    </mxGraphModel>
  </diagram>
</mxfile>
